<svg xmlns="http://www.w3.org/2000/svg" viewBox="0 0 137.23 43"><defs><style>.a{font-size:14.6px;font-family:Gotham-Light, Gotham;letter-spacing:-0.03em;}.a,.b{fill:#fff;}</style></defs><title>Asset 22</title><text class="a" transform="translate(0 39.72)">Registration Service</text><path class="b" d="M9.74.71H19a7.42,7.42,0,0,1,5.38,1.82,4.61,4.61,0,0,1,1.38,3.41V6a4.9,4.9,0,0,1-2.94,4.58c2.41.82,4.08,2.2,4.08,5v.06c0,3.68-3,5.64-7.6,5.64H9.74ZM22.11,6.53c0-1.62-1.29-2.62-3.61-2.62H13.3V9.38h4.93c2.33,0,3.88-.91,3.88-2.8ZM19,12.43H13.3v5.64h6c2.47,0,4-1,4-2.82v-.06c0-1.73-1.38-2.76-4.23-2.76"/><path class="b" d="M29.49,15.63V5.76H33v8.82c0,2.41,1.21,3.76,3.33,3.76s3.49-1.41,3.49-3.82V5.76h3.59V21.27H39.86v-2.4A5.57,5.57,0,0,1,35,21.6c-3.49,0-5.52-2.35-5.52-6"/><path class="b" d="M45.74,19.25l1.59-2.41a8.8,8.8,0,0,0,5.08,1.91c1.53,0,2.41-.65,2.41-1.68V17c0-1.2-1.65-1.61-3.47-2.17-2.29-.65-4.85-1.59-4.85-4.55v-.06C46.5,7.29,49,5.5,52,5.5a10.71,10.71,0,0,1,5.7,1.76L56.32,9.78a9,9,0,0,0-4.38-1.46c-1.38,0-2.17.64-2.17,1.52v.07c0,1.14,1.67,1.61,3.49,2.2,2.27.7,4.82,1.73,4.82,4.52v.06c0,3.26-2.53,4.88-5.76,4.88a10.89,10.89,0,0,1-6.58-2.32"/><path class="b" d="M60.9,0h3.82V3.38H60.9Zm.15,5.76h3.56V21.27H61.05Z"/><path class="b" d="M68.37,5.76h3.55V8.14a5.62,5.62,0,0,1,4.85-2.7c3.5,0,5.52,2.35,5.52,5.93v9.9H78.74V12.46c0-2.41-1.21-3.79-3.32-3.79s-3.5,1.44-3.5,3.85v8.75H68.37Z"/><path class="b" d="M84.85,13.58v-.06c0-4.44,3.15-8.08,7.59-8.08,4.93,0,7.43,3.88,7.43,8.34,0,.33,0,.65-.06,1H88.41a4.33,4.33,0,0,0,4.47,3.94,5.66,5.66,0,0,0,4.2-1.85l2.09,1.85a7.89,7.89,0,0,1-6.35,2.91,7.74,7.74,0,0,1-8-8m11.49-1.15c-.23-2.29-1.58-4.08-3.94-4.08-2.17,0-3.7,1.67-4,4.08Z"/><path class="b" d="M101.31,19.25l1.58-2.41A8.83,8.83,0,0,0,108,18.75c1.53,0,2.41-.65,2.41-1.68V17c0-1.2-1.65-1.61-3.47-2.17-2.29-.65-4.85-1.59-4.85-4.55v-.06c0-2.94,2.44-4.73,5.53-4.73a10.74,10.74,0,0,1,5.7,1.76l-1.41,2.52a9,9,0,0,0-4.38-1.46c-1.38,0-2.18.64-2.18,1.52v.07c0,1.14,1.68,1.61,3.5,2.2,2.26.7,4.82,1.73,4.82,4.52v.06c0,3.26-2.53,4.88-5.76,4.88a10.89,10.89,0,0,1-6.58-2.32"/><path class="b" d="M115.15,19.25l1.59-2.41a8.8,8.8,0,0,0,5.08,1.91c1.53,0,2.41-.65,2.41-1.68V17c0-1.2-1.65-1.61-3.47-2.17-2.29-.65-4.85-1.59-4.85-4.55v-.06c0-2.94,2.44-4.73,5.53-4.73a10.71,10.71,0,0,1,5.7,1.76l-1.41,2.52a9,9,0,0,0-4.38-1.46c-1.38,0-2.17.64-2.17,1.52v.07c0,1.14,1.67,1.61,3.49,2.2,2.27.7,4.82,1.73,4.82,4.52v.06c0,3.26-2.53,4.88-5.76,4.88a10.89,10.89,0,0,1-6.58-2.32"/></svg>